<?xml version="1.0" encoding="UTF-8" standalone="no"?>
<svg
   height="24px"
   viewBox="0 -960 960 960"
   width="24px"
   fill="#e3e3e3"
   version="1.1"
   id="svg4"
   sodipodi:docname="photo_camera_24dp_E3E3E3_FILL0_wght400_GRAD0_opsz24.svg"
   inkscape:version="1.2.1 (9c6d41e410, 2022-07-14)"
   xmlns:inkscape="http://www.inkscape.org/namespaces/inkscape"
   xmlns:sodipodi="http://sodipodi.sourceforge.net/DTD/sodipodi-0.dtd"
   xmlns="http://www.w3.org/2000/svg"
   xmlns:svg="http://www.w3.org/2000/svg">
  <defs
     id="defs8" />
  <sodipodi:namedview
     id="namedview6"
     pagecolor="#ffffff"
     bordercolor="#000000"
     borderopacity="0.25"
     inkscape:showpageshadow="2"
     inkscape:pageopacity="0.0"
     inkscape:pagecheckerboard="0"
     inkscape:deskcolor="#d1d1d1"
     showgrid="false"
     inkscape:zoom="35.791667"
     inkscape:cx="9.0384168"
     inkscape:cy="12.027939"
     inkscape:window-width="1920"
     inkscape:window-height="991"
     inkscape:window-x="-9"
     inkscape:window-y="1491"
     inkscape:window-maximized="1"
     inkscape:current-layer="svg4" />
  <path
     d="M480-260q75 0 127.5-52.5T660-440q0-75-52.5-127.5T480-620q-75 0-127.5 52.5T300-440q0 75 52.5 127.5T480-260Zm0-80q-42 0-71-29t-29-71q0-42 29-71t71-29q42 0 71 29t29 71q0 42-29 71t-71 29ZM160-120q-33 0-56.5-23.5T80-200v-480q0-33 23.5-56.5T160-760h126l50-54q11-12 26.5-19t32.5-7h170q17 0 32.5 7t26.5 19l50 54h126q33 0 56.5 23.5T880-680v480q0 33-23.5 56.5T800-120H160Zm0-80h640v-480H638l-73-80H395l-73 80H160v480Zm320-240Z"
     id="path2"
     style="fill:#ffffff;fill-opacity:1" />
</svg>
