<?xml version="1.0" encoding="UTF-8" standalone="no"?>
<svg
   height="24px"
   viewBox="0 -960 960 960"
   width="24px"
   fill="#e3e3e3"
   version="1.1"
   id="svg4"
   sodipodi:docname="mail_24dp_E3E3E3_FILL0_wght400_GRAD0_opsz24.svg"
   inkscape:version="1.2.1 (9c6d41e410, 2022-07-14)"
   xmlns:inkscape="http://www.inkscape.org/namespaces/inkscape"
   xmlns:sodipodi="http://sodipodi.sourceforge.net/DTD/sodipodi-0.dtd"
   xmlns="http://www.w3.org/2000/svg"
   xmlns:svg="http://www.w3.org/2000/svg">
  <defs
     id="defs8" />
  <sodipodi:namedview
     id="namedview6"
     pagecolor="#ffffff"
     bordercolor="#000000"
     borderopacity="0.25"
     inkscape:showpageshadow="2"
     inkscape:pageopacity="0.0"
     inkscape:pagecheckerboard="0"
     inkscape:deskcolor="#d1d1d1"
     showgrid="false"
     inkscape:zoom="35.791667"
     inkscape:cx="9.0384168"
     inkscape:cy="12.027939"
     inkscape:window-width="1920"
     inkscape:window-height="991"
     inkscape:window-x="-9"
     inkscape:window-y="1491"
     inkscape:window-maximized="1"
     inkscape:current-layer="svg4" />
  <path
     d="M160-160q-33 0-56.5-23.5T80-240v-480q0-33 23.5-56.5T160-800h640q33 0 56.5 23.5T880-720v480q0 33-23.5 56.5T800-160H160Zm640-480L501-453q-5 3-10.5 4.5T480-447q-5 0-10.5-1.5T459-453L160-640v400h640v-400ZM480-520l320-200H160l320 200ZM160-640v10-59 1-32 32-.5 58.5-10 400-400Z"
     id="path2"
     style="fill:#ffffff;fill-opacity:1" />
</svg>
